# xmcd
#
# Track frame offsets: 
#        150
#        18925
#        39645
#        73318
#        91308
#        117430
#        139808
#        163373
#        177870
#        192510
#        212300
#        228168
#
# Disc length: 3583 seconds
#
# Revision: 9
# Processed by: cddbd v1.5.2PL0 Copyright (c) Steve Scherf et al.
# Submitted via: ExactAudioCopyFreeDBPlugin 1.0
#
DISCID=a80dfd0c
DTITLE=KUWATA BAND - ROCK CONCERT DISC2
DYEAR=1986
DGENRE=Rock
TTITLE0=ONE DAY
TTITLE1=I'M A MAN (アイム・ア・マン・フロム・ザ・プラネット・アース)
TTITLE2=FEED BACK (理由なき青春)
TTITLE3=SHE'LL BE TELLIN' (真夜中へデビューしろ！！)
TTITLE4=PARAVOID (彼女はパラボイド)
TTITLE5="BOYS" IN THE CITY (ボーイズ・イン・ザ・シティ)
TTITLE6=GO GO GO (愚かなあいつ)
TTITLE7=鰐
TTITLE8=BE MY BABY
TTITLE9=BAN BAN BAN
TTITLE10=神様お願い
TTITLE11=HEY JUDE
EXTD=YEAR: 1986
EXTT0=
EXTT1=
EXTT2=
EXTT3=
EXTT4=
EXTT5=
EXTT6=
EXTT7=
EXTT8=
EXTT9=
EXTT10=
EXTT11=
PLAYORDER=
